<svg width="24" height="25" viewBox="0 0 24 25" fill="none" xmlns="http://www.w3.org/2000/svg">
<path d="M20 8.05469L12 13.0547L4 8.05469V6.05469L12 11.0547L20 6.05469M20 4.05469H4C2.89 4.05469 2 4.94469 2 6.05469V18.0547C2 18.5851 2.21071 19.0938 2.58579 19.4689C2.96086 19.844 3.46957 20.0547 4 20.0547H20C20.5304 20.0547 21.0391 19.844 21.4142 19.4689C21.7893 19.0938 22 18.5851 22 18.0547V6.05469C22 5.52425 21.7893 5.01555 21.4142 4.64047C21.0391 4.2654 20.5304 4.05469 20 4.05469Z" fill="white"/>
</svg>
