<svg width="24" height="25" viewBox="0 0 24 25" fill="none" xmlns="http://www.w3.org/2000/svg">
<path d="M16.5 2.30469H7.5C6.10807 2.30618 4.77358 2.85978 3.78933 3.84402C2.80509 4.82826 2.25149 6.16276 2.25 7.55469V16.5547C2.25149 17.9466 2.80509 19.2811 3.78933 20.2654C4.77358 21.2496 6.10807 21.8032 7.5 21.8047H16.5C17.8919 21.8032 19.2264 21.2496 20.2107 20.2654C21.1949 19.2811 21.7485 17.9466 21.75 16.5547V7.55469C21.7485 6.16276 21.1949 4.82826 20.2107 3.84402C19.2264 2.85978 17.8919 2.30618 16.5 2.30469ZM12 16.5547C11.11 16.5547 10.24 16.2908 9.49993 15.7963C8.75991 15.3018 8.18314 14.599 7.84254 13.7768C7.50195 12.9545 7.41283 12.0497 7.58647 11.1768C7.7601 10.3039 8.18868 9.50204 8.81802 8.87271C9.44736 8.24337 10.2492 7.81479 11.1221 7.64115C11.995 7.46752 12.8998 7.55664 13.7221 7.89723C14.5443 8.23782 15.2471 8.8146 15.7416 9.55462C16.2361 10.2946 16.5 11.1647 16.5 12.0547C16.4988 13.2478 16.0243 14.3917 15.1806 15.2353C14.337 16.0789 13.1931 16.5534 12 16.5547ZM17.625 7.55469C17.4025 7.55469 17.185 7.48871 17 7.36509C16.815 7.24147 16.6708 7.06577 16.5856 6.86021C16.5005 6.65464 16.4782 6.42844 16.5216 6.21021C16.565 5.99198 16.6722 5.79153 16.8295 5.63419C16.9868 5.47686 17.1873 5.36971 17.4055 5.3263C17.6238 5.2829 17.85 5.30517 18.0555 5.39032C18.2611 5.47547 18.4368 5.61967 18.5604 5.80467C18.684 5.98968 18.75 6.20718 18.75 6.42969C18.75 6.72806 18.6315 7.0142 18.4205 7.22518C18.2095 7.43616 17.9234 7.55469 17.625 7.55469ZM15 12.0547C15 12.648 14.8241 13.2281 14.4944 13.7214C14.1648 14.2147 13.6962 14.5993 13.1481 14.8263C12.5999 15.0534 11.9967 15.1128 11.4147 14.997C10.8328 14.8813 10.2982 14.5956 9.87868 14.176C9.45912 13.7564 9.1734 13.2219 9.05764 12.64C8.94189 12.058 9.0013 11.4548 9.22836 10.9066C9.45542 10.3585 9.83994 9.88992 10.3333 9.56028C10.8266 9.23063 11.4067 9.05469 12 9.05469C12.7956 9.05469 13.5587 9.37076 14.1213 9.93337C14.6839 10.496 15 11.259 15 12.0547Z" fill="white"/>
</svg>
