<svg width="24" height="25" viewBox="0 0 24 25" fill="none" xmlns="http://www.w3.org/2000/svg">
<g clip-path="url(#clip0_105_1040)">
<path d="M12 2.05469C14.3869 2.05469 16.6761 3.0029 18.364 4.69073C20.0518 6.37855 21 8.66774 21 11.0547C21 14.1287 19.324 16.6447 17.558 18.4497C16.6755 19.3416 15.7128 20.1503 14.682 20.8657L14.256 21.1557L14.056 21.2887L13.679 21.5287L13.343 21.7337L12.927 21.9757C12.6445 22.1365 12.325 22.221 12 22.221C11.675 22.221 11.3555 22.1365 11.073 21.9757L10.657 21.7337L10.137 21.4137L9.945 21.2887L9.535 21.0157C8.42298 20.263 7.38707 19.4036 6.442 18.4497C4.676 16.6427 3 14.1287 3 11.0547C3 8.66774 3.94821 6.37855 5.63604 4.69073C7.32387 3.0029 9.61305 2.05469 12 2.05469ZM12 8.05469C11.606 8.05469 11.2159 8.13228 10.8519 8.28305C10.488 8.43381 10.1573 8.65479 9.87868 8.93337C9.6001 9.21194 9.37913 9.54266 9.22836 9.90664C9.0776 10.2706 9 10.6607 9 11.0547C9 11.4487 9.0776 11.8388 9.22836 12.2027C9.37913 12.5667 9.6001 12.8974 9.87868 13.176C10.1573 13.4546 10.488 13.6756 10.8519 13.8263C11.2159 13.9771 11.606 14.0547 12 14.0547C12.7956 14.0547 13.5587 13.7386 14.1213 13.176C14.6839 12.6134 15 11.8503 15 11.0547C15 10.259 14.6839 9.49598 14.1213 8.93337C13.5587 8.37076 12.7956 8.05469 12 8.05469Z" fill="white"/>
</g>
<defs>
<clipPath id="clip0_105_1040">
<rect width="24" height="24" fill="white" transform="translate(0 0.0546875)"/>
</clipPath>
</defs>
</svg>
