<svg width="24" height="25" viewBox="0 0 24 25" fill="none" xmlns="http://www.w3.org/2000/svg">
<path d="M12.244 4.05469C12.778 4.05769 14.114 4.07069 15.534 4.12769L16.038 4.14969C17.467 4.21669 18.895 4.33269 19.604 4.52969C20.549 4.79569 21.291 5.56969 21.542 6.55169C21.942 8.11169 21.992 11.1537 21.998 11.8907L21.999 12.0427V12.2167C21.992 12.9537 21.942 15.9967 21.542 17.5557C21.288 18.5407 20.545 19.3157 19.604 19.5777C18.895 19.7747 17.467 19.8907 16.038 19.9577L15.534 19.9807C14.114 20.0367 12.778 20.0507 12.244 20.0527L12.009 20.0537H11.754C10.624 20.0467 5.898 19.9957 4.394 19.5777C3.45 19.3117 2.707 18.5377 2.456 17.5557C2.056 15.9957 2.006 12.9537 2 12.2167V11.8907C2.006 11.1537 2.056 8.11069 2.456 6.55169C2.71 5.56669 3.453 4.79169 4.395 4.53069C5.898 4.11169 10.625 4.06069 11.755 4.05469H12.244ZM9.999 8.55469V15.5547L15.999 12.0547L9.999 8.55469Z" fill="white"/>
</svg>
